<?xml version="1.0" standalone="no"?><!DOCTYPE svg PUBLIC "-//W3C//DTD SVG 1.1//EN" "http://www.w3.org/Graphics/SVG/1.1/DTD/svg11.dtd"><svg xmlns:xlink="http://www.w3.org/1999/xlink" version="1.1" class="highcharts-root" style="font-family:&quot;Lucida Grande&quot;, &quot;Lucida Sans Unicode&quot;, Arial, Helvetica, sans-serif;font-size:12px;" xmlns="http://www.w3.org/2000/svg" width="650" height="500" viewBox="0 0 650 500"><desc>Created with Highcharts 6.1.0</desc><defs><clipPath id="highcharts-60tzyuv-11"><rect x="0" y="0" width="564" height="364" fill="none"></rect></clipPath></defs><rect fill="#ffffff" class="highcharts-background" x="0" y="0" width="650" height="500" rx="0" ry="0"></rect><rect fill="none" class="highcharts-plot-background" x="76" y="45" width="564" height="364"></rect><g class="highcharts-pane-group"></g><g class="highcharts-grid highcharts-xaxis-grid "><path fill="none" class="highcharts-grid-line" d="M 81.5 45 L 81.5 409" opacity="1"></path><path fill="none" class="highcharts-grid-line" d="M 108.5 45 L 108.5 409" opacity="1"></path><path fill="none" class="highcharts-grid-line" d="M 136.5 45 L 136.5 409" opacity="1"></path><path fill="none" class="highcharts-grid-line" d="M 163.5 45 L 163.5 409" opacity="1"></path><path fill="none" class="highcharts-grid-line" d="M 191.5 45 L 191.5 409" opacity="1"></path><path fill="none" class="highcharts-grid-line" d="M 219.5 45 L 219.5 409" opacity="1"></path><path fill="none" class="highcharts-grid-line" d="M 246.5 45 L 246.5 409" opacity="1"></path><path fill="none" class="highcharts-grid-line" d="M 274.5 45 L 274.5 409" opacity="1"></path><path fill="none" class="highcharts-grid-line" d="M 302.5 45 L 302.5 409" opacity="1"></path><path fill="none" class="highcharts-grid-line" d="M 329.5 45 L 329.5 409" opacity="1"></path><path fill="none" class="highcharts-grid-line" d="M 357.5 45 L 357.5 409" opacity="1"></path><path fill="none" class="highcharts-grid-line" d="M 385.5 45 L 385.5 409" opacity="1"></path><path fill="none" class="highcharts-grid-line" d="M 412.5 45 L 412.5 409" opacity="1"></path><path fill="none" class="highcharts-grid-line" d="M 440.5 45 L 440.5 409" opacity="1"></path><path fill="none" class="highcharts-grid-line" d="M 468.5 45 L 468.5 409" opacity="1"></path><path fill="none" class="highcharts-grid-line" d="M 495.5 45 L 495.5 409" opacity="1"></path><path fill="none" class="highcharts-grid-line" d="M 523.5 45 L 523.5 409" opacity="1"></path><path fill="none" class="highcharts-grid-line" d="M 551.5 45 L 551.5 409" opacity="1"></path><path fill="none" class="highcharts-grid-line" d="M 578.5 45 L 578.5 409" opacity="1"></path><path fill="none" class="highcharts-grid-line" d="M 606.5 45 L 606.5 409" opacity="1"></path><path fill="none" class="highcharts-grid-line" d="M 633.5 45 L 633.5 409" opacity="1"></path></g><g class="highcharts-grid highcharts-yaxis-grid "><path fill="none" stroke="#e6e6e6" stroke-width="1" class="highcharts-grid-line" d="M 76 409.5 L 640 409.5" opacity="1"></path><path fill="none" stroke="#e6e6e6" stroke-width="1" class="highcharts-grid-line" d="M 76 357.5 L 640 357.5" opacity="1"></path><path fill="none" stroke="#e6e6e6" stroke-width="1" class="highcharts-grid-line" d="M 76 305.5 L 640 305.5" opacity="1"></path><path fill="none" stroke="#e6e6e6" stroke-width="1" class="highcharts-grid-line" d="M 76 253.5 L 640 253.5" opacity="1"></path><path fill="none" stroke="#e6e6e6" stroke-width="1" class="highcharts-grid-line" d="M 76 201.5 L 640 201.5" opacity="1"></path><path fill="none" stroke="#e6e6e6" stroke-width="1" class="highcharts-grid-line" d="M 76 149.5 L 640 149.5" opacity="1"></path><path fill="none" stroke="#e6e6e6" stroke-width="1" class="highcharts-grid-line" d="M 76 97.5 L 640 97.5" opacity="1"></path><path fill="none" stroke="#e6e6e6" stroke-width="1" class="highcharts-grid-line" d="M 76 44.5 L 640 44.5" opacity="1"></path></g><rect fill="none" class="highcharts-plot-border" x="76" y="45" width="564" height="364"></rect><g class="highcharts-axis highcharts-xaxis "><path fill="none" class="highcharts-tick" stroke="#ccd6eb" stroke-width="1" d="M 81.5 409 L 81.5 419" opacity="1"></path><path fill="none" class="highcharts-tick" stroke="#ccd6eb" stroke-width="1" d="M 108.5 409 L 108.5 419" opacity="1"></path><path fill="none" class="highcharts-tick" stroke="#ccd6eb" stroke-width="1" d="M 136.5 409 L 136.5 419" opacity="1"></path><path fill="none" class="highcharts-tick" stroke="#ccd6eb" stroke-width="1" d="M 163.5 409 L 163.5 419" opacity="1"></path><path fill="none" class="highcharts-tick" stroke="#ccd6eb" stroke-width="1" d="M 191.5 409 L 191.5 419" opacity="1"></path><path fill="none" class="highcharts-tick" stroke="#ccd6eb" stroke-width="1" d="M 219.5 409 L 219.5 419" opacity="1"></path><path fill="none" class="highcharts-tick" stroke="#ccd6eb" stroke-width="1" d="M 246.5 409 L 246.5 419" opacity="1"></path><path fill="none" class="highcharts-tick" stroke="#ccd6eb" stroke-width="1" d="M 274.5 409 L 274.5 419" opacity="1"></path><path fill="none" class="highcharts-tick" stroke="#ccd6eb" stroke-width="1" d="M 302.5 409 L 302.5 419" opacity="1"></path><path fill="none" class="highcharts-tick" stroke="#ccd6eb" stroke-width="1" d="M 329.5 409 L 329.5 419" opacity="1"></path><path fill="none" class="highcharts-tick" stroke="#ccd6eb" stroke-width="1" d="M 357.5 409 L 357.5 419" opacity="1"></path><path fill="none" class="highcharts-tick" stroke="#ccd6eb" stroke-width="1" d="M 385.5 409 L 385.5 419" opacity="1"></path><path fill="none" class="highcharts-tick" stroke="#ccd6eb" stroke-width="1" d="M 412.5 409 L 412.5 419" opacity="1"></path><path fill="none" class="highcharts-tick" stroke="#ccd6eb" stroke-width="1" d="M 440.5 409 L 440.5 419" opacity="1"></path><path fill="none" class="highcharts-tick" stroke="#ccd6eb" stroke-width="1" d="M 468.5 409 L 468.5 419" opacity="1"></path><path fill="none" class="highcharts-tick" stroke="#ccd6eb" stroke-width="1" d="M 495.5 409 L 495.5 419" opacity="1"></path><path fill="none" class="highcharts-tick" stroke="#ccd6eb" stroke-width="1" d="M 523.5 409 L 523.5 419" opacity="1"></path><path fill="none" class="highcharts-tick" stroke="#ccd6eb" stroke-width="1" d="M 551.5 409 L 551.5 419" opacity="1"></path><path fill="none" class="highcharts-tick" stroke="#ccd6eb" stroke-width="1" d="M 578.5 409 L 578.5 419" opacity="1"></path><path fill="none" class="highcharts-tick" stroke="#ccd6eb" stroke-width="1" d="M 606.5 409 L 606.5 419" opacity="1"></path><path fill="none" class="highcharts-tick" stroke="#ccd6eb" stroke-width="1" d="M 633.5 409 L 633.5 419" opacity="1"></path><text x="358" text-anchor="middle" transform="translate(0,0)" class="highcharts-axis-title" style="color:#666666;fill:#666666;" y="446"><tspan>Layer</tspan></text><path fill="none" class="highcharts-axis-line" stroke="#ccd6eb" stroke-width="1" d="M 76 409.5 L 640 409.5"></path></g><g class="highcharts-axis highcharts-yaxis "><text x="24.046875" text-anchor="middle" transform="translate(0,0) rotate(270 24.046875 227)" class="highcharts-axis-title" style="color:#666666;fill:#666666;" y="227"><tspan>Gradients</tspan></text><path fill="none" class="highcharts-axis-line" d="M 76 45 L 76 409"></path></g><g class="highcharts-series-group"><g class="highcharts-series highcharts-series-1 highcharts-arearange-series " transform="translate(76,45) scale(1 1)" clip-path="url(#highcharts-60tzyuv-11)"><path fill="rgb(124,181,236)" fill-opacity="0.3" d="M 5.5294117647059 262.55631999999997 L 33.176470588235 276.80328 L 60.823529411765 286.30264 L 88.470588235294 294.2836 L 116.11764705882 300.07016 L 143.76470588235 304.81775999999996 L 171.41176470588 308.11039999999997 L 199.05882352941 310.73848 L 226.70588235294 314.63848 L 254.35294117647 317.28736 L 282 319.47136 L 309.64705882353 319.9352 L 337.29411764706 322.63192 L 364.94117647059 322.80976 L 392.58823529412 325.19032 L 420.23529411765 325.8008 L 447.88235294118 327.21208 L 475.52941176471 327.45128 L 503.17647058824 328.64624 L 530.82352941176 329.20992 L 558.47058823529 328.89063999999996 L 558.47058823529 328.89063999999996 L 558.47058823529 27.24279999999999 L 530.82352941176 24.738480000000038 L 503.17647058824 23.15767999999997 L 475.52941176471 22.240400000000022 L 447.88235294118 20.458879999999965 L 420.23529411765 19.74752000000001 L 392.58823529412 18.211439999999982 L 364.94117647059 18.534880000000044 L 337.29411764706 16.69096000000002 L 309.64705882353 17.334720000000004 L 282 15.695680000000038 L 254.35294117647 15.823599999999999 L 226.70588235294 16.374799999999993 L 199.05882352941 18.137599999999964 L 171.41176470588 18.674239999999998 L 143.76470588235 19.93471999999997 L 116.11764705882 22.49831999999998 L 88.470588235294 26.376480000000015 L 60.823529411765 32.43136000000004 L 33.176470588235 40.06808000000001 L 5.5294117647059 52.63439999999997 L 5.5294117647059 262.55631999999997" class="highcharts-area"></path><path fill="none" d="M 5.5294117647059 262.55631999999997 L 33.176470588235 276.80328 L 60.823529411765 286.30264 L 88.470588235294 294.2836 L 116.11764705882 300.07016 L 143.76470588235 304.81775999999996 L 171.41176470588 308.11039999999997 L 199.05882352941 310.73848 L 226.70588235294 314.63848 L 254.35294117647 317.28736 L 282 319.47136 L 309.64705882353 319.9352 L 337.29411764706 322.63192 L 364.94117647059 322.80976 L 392.58823529412 325.19032 L 420.23529411765 325.8008 L 447.88235294118 327.21208 L 475.52941176471 327.45128 L 503.17647058824 328.64624 L 530.82352941176 329.20992 L 558.47058823529 328.89063999999996 M 558.47058823529 27.24279999999999 L 530.82352941176 24.738480000000038 L 503.17647058824 23.15767999999997 L 475.52941176471 22.240400000000022 L 447.88235294118 20.458879999999965 L 420.23529411765 19.74752000000001 L 392.58823529412 18.211439999999982 L 364.94117647059 18.534880000000044 L 337.29411764706 16.69096000000002 L 309.64705882353 17.334720000000004 L 282 15.695680000000038 L 254.35294117647 15.823599999999999 L 226.70588235294 16.374799999999993 L 199.05882352941 18.137599999999964 L 171.41176470588 18.674239999999998 L 143.76470588235 19.93471999999997 L 116.11764705882 22.49831999999998 L 88.470588235294 26.376480000000015 L 60.823529411765 32.43136000000004 L 33.176470588235 40.06808000000001 L 5.5294117647059 52.63439999999997" class="highcharts-graph" stroke="#7cb5ec" stroke-width="1" stroke-linejoin="round" stroke-linecap="round"></path></g><g class="highcharts-markers highcharts-series-1 highcharts-arearange-series " transform="translate(76,45) scale(1 1)" clip-path="none"></g><g class="highcharts-series highcharts-series-3 highcharts-arearange-series " transform="translate(76,45) scale(1 1)" clip-path="url(#highcharts-60tzyuv-11)"><path fill="rgb(67,67,72)" fill-opacity="0.3" d="M 5.5294117647059 156.41911999999996 L 33.176470588235 156.41288 L 60.823529411765 156.41704000000001 L 88.470588235294 156.4108 L 116.11764705882 156.41288 L 143.76470588235 156.40976 L 171.41176470588 156.42639999999997 L 199.05882352941 156.40768 L 226.70588235294 156.40248 L 254.35294117647 156.4056 L 282 156.42847999999998 L 309.64705882353 156.43576 L 337.29411764706 156.42327999999998 L 364.94117647059 156.41392 L 392.58823529412 156.41808 L 420.23529411765 156.4056 L 447.88235294118 156.39935999999997 L 475.52941176471 156.39935999999997 L 503.17647058824 156.37752 L 530.82352941176 156.37231999999997 L 558.47058823529 156.36087999999998 L 558.47058823529 156.36087999999998 L 558.47058823529 155.63912 L 530.82352941176 155.62872 L 503.17647058824 155.62248 L 475.52941176471 155.60064 L 447.88235294118 155.60064 L 420.23529411765 155.59439999999998 L 392.58823529412 155.58191999999997 L 364.94117647059 155.58711999999997 L 337.29411764706 155.57672 L 309.64705882353 155.56423999999998 L 282 155.57152 L 254.35294117647 155.59544 L 226.70588235294 155.59752 L 199.05882352941 155.59231999999997 L 171.41176470588 155.5736 L 143.76470588235 155.59024 L 116.11764705882 155.58711999999997 L 88.470588235294 155.59024 L 60.823529411765 155.58295999999999 L 33.176470588235 155.58711999999997 L 5.5294117647059 155.58088 L 5.5294117647059 156.41911999999996" class="highcharts-area"></path><path fill="none" d="M 5.5294117647059 156.41911999999996 L 33.176470588235 156.41288 L 60.823529411765 156.41704000000001 L 88.470588235294 156.4108 L 116.11764705882 156.41288 L 143.76470588235 156.40976 L 171.41176470588 156.42639999999997 L 199.05882352941 156.40768 L 226.70588235294 156.40248 L 254.35294117647 156.4056 L 282 156.42847999999998 L 309.64705882353 156.43576 L 337.29411764706 156.42327999999998 L 364.94117647059 156.41392 L 392.58823529412 156.41808 L 420.23529411765 156.4056 L 447.88235294118 156.39935999999997 L 475.52941176471 156.39935999999997 L 503.17647058824 156.37752 L 530.82352941176 156.37231999999997 L 558.47058823529 156.36087999999998 M 558.47058823529 155.63912 L 530.82352941176 155.62872 L 503.17647058824 155.62248 L 475.52941176471 155.60064 L 447.88235294118 155.60064 L 420.23529411765 155.59439999999998 L 392.58823529412 155.58191999999997 L 364.94117647059 155.58711999999997 L 337.29411764706 155.57672 L 309.64705882353 155.56423999999998 L 282 155.57152 L 254.35294117647 155.59544 L 226.70588235294 155.59752 L 199.05882352941 155.59231999999997 L 171.41176470588 155.5736 L 143.76470588235 155.59024 L 116.11764705882 155.58711999999997 L 88.470588235294 155.59024 L 60.823529411765 155.58295999999999 L 33.176470588235 155.58711999999997 L 5.5294117647059 155.58088" class="highcharts-graph" stroke="#434348" stroke-width="1" stroke-linejoin="round" stroke-linecap="round"></path></g><g class="highcharts-markers highcharts-series-3 highcharts-arearange-series " transform="translate(76,45) scale(1 1)" clip-path="none"></g><g class="highcharts-series highcharts-series-5 highcharts-arearange-series " transform="translate(76,45) scale(1 1)" clip-path="url(#highcharts-60tzyuv-11)"><path fill="rgb(144,237,125)" fill-opacity="0.3" d="M 5.5294117647059 268.99807999999996 L 33.176470588235 268.60704 L 60.823529411765 267.55352 L 88.470588235294 268.61224 L 116.11764705882 269.50352 L 143.76470588235 269.8488 L 171.41176470588 270.556 L 199.05882352941 269.95799999999997 L 226.70588235294 270.81287999999995 L 254.35294117647 271.22888 L 282 272.76808 L 309.64705882353 272.3396 L 337.29411764706 273.50023999999996 L 364.94117647059 273.51583999999997 L 392.58823529412 274.3468 L 420.23529411765 274.5288 L 447.88235294118 275.18608 L 475.52941176471 275.42944 L 503.17647058824 275.53344 L 530.82352941176 276.12936 L 558.47058823529 274.8876 L 558.47058823529 274.8876 L 558.47058823529 60.012159999999994 L 530.82352941176 57.895759999999996 L 503.17647058824 57.53280000000001 L 475.52941176471 56.667520000000025 L 447.88235294118 55.99880000000002 L 420.23529411765 55.69200000000001 L 392.58823529412 54.82672000000002 L 364.94117647059 54.78408000000002 L 337.29411764706 53.86784 L 309.64705882353 54.05816000000004 L 282 52.864239999999995 L 254.35294117647 53.33743999999996 L 226.70588235294 52.892319999999984 L 199.05882352941 53.01504 L 171.41176470588 51.50600000000003 L 143.76470588235 51.60167999999999 L 116.11764705882 51.029679999999985 L 88.470588235294 51.34376000000003 L 60.823529411765 51.55279999999999 L 33.176470588235 49.866960000000006 L 5.5294117647059 48.855039999999974 L 5.5294117647059 268.99807999999996" class="highcharts-area"></path><path fill="none" d="M 5.5294117647059 268.99807999999996 L 33.176470588235 268.60704 L 60.823529411765 267.55352 L 88.470588235294 268.61224 L 116.11764705882 269.50352 L 143.76470588235 269.8488 L 171.41176470588 270.556 L 199.05882352941 269.95799999999997 L 226.70588235294 270.81287999999995 L 254.35294117647 271.22888 L 282 272.76808 L 309.64705882353 272.3396 L 337.29411764706 273.50023999999996 L 364.94117647059 273.51583999999997 L 392.58823529412 274.3468 L 420.23529411765 274.5288 L 447.88235294118 275.18608 L 475.52941176471 275.42944 L 503.17647058824 275.53344 L 530.82352941176 276.12936 L 558.47058823529 274.8876 M 558.47058823529 60.012159999999994 L 530.82352941176 57.895759999999996 L 503.17647058824 57.53280000000001 L 475.52941176471 56.667520000000025 L 447.88235294118 55.99880000000002 L 420.23529411765 55.69200000000001 L 392.58823529412 54.82672000000002 L 364.94117647059 54.78408000000002 L 337.29411764706 53.86784 L 309.64705882353 54.05816000000004 L 282 52.864239999999995 L 254.35294117647 53.33743999999996 L 226.70588235294 52.892319999999984 L 199.05882352941 53.01504 L 171.41176470588 51.50600000000003 L 143.76470588235 51.60167999999999 L 116.11764705882 51.029679999999985 L 88.470588235294 51.34376000000003 L 60.823529411765 51.55279999999999 L 33.176470588235 49.866960000000006 L 5.5294117647059 48.855039999999974" class="highcharts-graph" stroke="#90ed7d" stroke-width="1" stroke-linejoin="round" stroke-linecap="round"></path></g><g class="highcharts-markers highcharts-series-5 highcharts-arearange-series " transform="translate(76,45) scale(1 1)" clip-path="none"></g><g class="highcharts-series highcharts-series-7 highcharts-arearange-series " visibility="hidden" transform="translate(76,45) scale(1 1)" clip-path="url(#highcharts-60tzyuv-11)"><path fill="rgb(247,163,92)" fill-opacity="0.3" d="M 5.5294117647059 3158.2470399999997 L 33.176470588235 3051.26536 L 60.823529411765 2956.5234399999995 L 88.470588235294 2856.35792 L 116.11764705882 2766.712 L 143.76470588235 2702.92256 L 171.41176470588 2624.0395999999996 L 199.05882352941 2554.99608 L 226.70588235294 2482.01408 L 254.35294117647 2423.19168 L 282 2370.98784 L 309.64705882353 2305.81208 L 337.29411764706 2273.02192 L 364.94117647059 2220.19096 L 392.58823529412 2209.78888 L 420.23529411765 2205.74224 L 447.88235294118 2216.2826400000004 L 475.52941176471 2254.4714400000003 L 503.17647058824 2329.49392 L 530.82352941176 2436.32168 L 558.47058823529 2584.8877599999996 L 558.47058823529 2584.8877599999996 L 558.47058823529 -544.6656800000001 L 530.82352941176 -776.5472000000002 L 503.17647058824 -967.88536 L 475.52941176471 -1124.30552 L 447.88235294118 -1267.57176 L 420.23529411765 -1393.8984799999998 L 392.58823529412 -1514.04448 L 364.94117647059 -1605.76832 L 337.29411764706 -1715.81592 L 309.64705882353 -1805.4046400000002 L 282 -1903.77304 L 254.35294117647 -1988.99896 L 226.70588235294 -2065.3828000000003 L 199.05882352941 -2158.33488 L 171.41176470588 -2240.8183200000003 L 143.76470588235 -2334.7178400000003 L 116.11764705882 -2410.69608 L 88.470588235294 -2511.4523200000003 L 60.823529411765 -2614.72744 L 33.176470588235 -2712.11408 L 5.5294117647059 -2816.34496 L 5.5294117647059 3158.2470399999997" class="highcharts-area"></path><path fill="none" d="M 5.5294117647059 3158.2470399999997 L 33.176470588235 3051.26536 L 60.823529411765 2956.5234399999995 L 88.470588235294 2856.35792 L 116.11764705882 2766.712 L 143.76470588235 2702.92256 L 171.41176470588 2624.0395999999996 L 199.05882352941 2554.99608 L 226.70588235294 2482.01408 L 254.35294117647 2423.19168 L 282 2370.98784 L 309.64705882353 2305.81208 L 337.29411764706 2273.02192 L 364.94117647059 2220.19096 L 392.58823529412 2209.78888 L 420.23529411765 2205.74224 L 447.88235294118 2216.2826400000004 L 475.52941176471 2254.4714400000003 L 503.17647058824 2329.49392 L 530.82352941176 2436.32168 L 558.47058823529 2584.8877599999996 M 558.47058823529 -544.6656800000001 L 530.82352941176 -776.5472000000002 L 503.17647058824 -967.88536 L 475.52941176471 -1124.30552 L 447.88235294118 -1267.57176 L 420.23529411765 -1393.8984799999998 L 392.58823529412 -1514.04448 L 364.94117647059 -1605.76832 L 337.29411764706 -1715.81592 L 309.64705882353 -1805.4046400000002 L 282 -1903.77304 L 254.35294117647 -1988.99896 L 226.70588235294 -2065.3828000000003 L 199.05882352941 -2158.33488 L 171.41176470588 -2240.8183200000003 L 143.76470588235 -2334.7178400000003 L 116.11764705882 -2410.69608 L 88.470588235294 -2511.4523200000003 L 60.823529411765 -2614.72744 L 33.176470588235 -2712.11408 L 5.5294117647059 -2816.34496" class="highcharts-graph" stroke="#f7a35c" stroke-width="1" stroke-linejoin="round" stroke-linecap="round"></path></g><g class="highcharts-markers highcharts-series-7 highcharts-arearange-series " visibility="hidden" transform="translate(76,45) scale(1 1)" clip-path="none"></g><g class="highcharts-series highcharts-series-0 highcharts-line-series highcharts-color-0 " transform="translate(76,45) scale(1 1)" clip-path="url(#highcharts-60tzyuv-11)"><path fill="none" d="M 5.5294117647059 157.59536 L 33.176470588235 158.43568 L 60.823529411765 159.36751999999998 L 88.470588235294 160.32952 L 116.11764705882 161.28423999999998 L 143.76470588235 162.37624 L 171.41176470588 163.39231999999998 L 199.05882352941 164.43856 L 226.70588235294 165.50664 L 254.35294117647 166.55495999999997 L 282 167.58352 L 309.64705882353 168.63495999999998 L 337.29411764706 169.66144 L 364.94117647059 170.67231999999998 L 392.58823529412 171.70087999999998 L 420.23529411765 172.77416 L 447.88235294118 173.83496 L 475.52941176471 174.84583999999998 L 503.17647058824 175.90248 L 530.82352941176 176.97367999999997 L 558.47058823529 178.06672" class="highcharts-graph" stroke="#7cb5ec" stroke-width="2" stroke-linejoin="round" stroke-linecap="round"></path></g><g class="highcharts-markers highcharts-series-0 highcharts-line-series highcharts-color-0 " transform="translate(76,45) scale(1 1)" clip-path="none"><path fill="white" d="M 9 158 A 4 4 0 1 1 8.999998000000167 157.99600000066667 Z" stroke="#7cb5ec" stroke-width="2" class="highcharts-point highcharts-negative highcharts-color-0"></path><path fill="white" d="M 37 158 A 4 4 0 1 1 36.99999800000017 157.99600000066667 Z" stroke="#7cb5ec" stroke-width="2" class="highcharts-point highcharts-negative highcharts-color-0"></path><path fill="white" d="M 64 159 A 4 4 0 1 1 63.99999800000017 158.99600000066667 Z" stroke="#7cb5ec" stroke-width="2" class="highcharts-point highcharts-negative highcharts-color-0"></path><path fill="white" d="M 92 160 A 4 4 0 1 1 91.99999800000016 159.99600000066667 Z" stroke="#7cb5ec" stroke-width="2" class="highcharts-point highcharts-negative highcharts-color-0"></path><path fill="white" d="M 120 161 A 4 4 0 1 1 119.99999800000016 160.99600000066667 Z" stroke="#7cb5ec" stroke-width="2" class="highcharts-point highcharts-negative highcharts-color-0"></path><path fill="white" d="M 147 162 A 4 4 0 1 1 146.99999800000018 161.99600000066667 Z" stroke="#7cb5ec" stroke-width="2" class="highcharts-point highcharts-negative highcharts-color-0"></path><path fill="white" d="M 175 163 A 4 4 0 1 1 174.99999800000018 162.99600000066667 Z" stroke="#7cb5ec" stroke-width="2" class="highcharts-point highcharts-negative highcharts-color-0"></path><path fill="white" d="M 203 164 A 4 4 0 1 1 202.99999800000018 163.99600000066667 Z" stroke="#7cb5ec" stroke-width="2" class="highcharts-point highcharts-negative highcharts-color-0"></path><path fill="white" d="M 230 166 A 4 4 0 1 1 229.99999800000018 165.99600000066667 Z" stroke="#7cb5ec" stroke-width="2" class="highcharts-point highcharts-negative highcharts-color-0"></path><path fill="white" d="M 258 167 A 4 4 0 1 1 257.9999980000002 166.99600000066667 Z" stroke="#7cb5ec" stroke-width="2" class="highcharts-point highcharts-negative highcharts-color-0"></path><path fill="white" d="M 286 168 A 4 4 0 1 1 285.9999980000002 167.99600000066667 Z" stroke="#7cb5ec" stroke-width="2" class="highcharts-point highcharts-negative highcharts-color-0"></path><path fill="white" d="M 313 169 A 4 4 0 1 1 312.9999980000002 168.99600000066667 Z" stroke="#7cb5ec" stroke-width="2" class="highcharts-point highcharts-negative highcharts-color-0"></path><path fill="white" d="M 341 170 A 4 4 0 1 1 340.9999980000002 169.99600000066667 Z" stroke="#7cb5ec" stroke-width="2" class="highcharts-point highcharts-negative highcharts-color-0"></path><path fill="white" d="M 368 171 A 4 4 0 1 1 367.9999980000002 170.99600000066667 Z" stroke="#7cb5ec" stroke-width="2" class="highcharts-point highcharts-negative highcharts-color-0"></path><path fill="white" d="M 396 172 A 4 4 0 1 1 395.9999980000002 171.99600000066667 Z" stroke="#7cb5ec" stroke-width="2" class="highcharts-point highcharts-negative highcharts-color-0"></path><path fill="white" d="M 424 173 A 4 4 0 1 1 423.9999980000002 172.99600000066667 Z" stroke="#7cb5ec" stroke-width="2" class="highcharts-point highcharts-negative highcharts-color-0"></path><path fill="white" d="M 451 174 A 4 4 0 1 1 450.9999980000002 173.99600000066667 Z" stroke="#7cb5ec" stroke-width="2" class="highcharts-point highcharts-negative highcharts-color-0"></path><path fill="white" d="M 479 175 A 4 4 0 1 1 478.9999980000002 174.99600000066667 Z" stroke="#7cb5ec" stroke-width="2" class="highcharts-point highcharts-negative highcharts-color-0"></path><path fill="white" d="M 507 176 A 4 4 0 1 1 506.9999980000002 175.99600000066667 Z" stroke="#7cb5ec" stroke-width="2" class="highcharts-point highcharts-negative highcharts-color-0"></path><path fill="white" d="M 534 177 A 4 4 0 1 1 533.9999980000001 176.99600000066667 Z" stroke="#7cb5ec" stroke-width="2" class="highcharts-point highcharts-negative highcharts-color-0"></path><path fill="white" d="M 562 178 A 4 4 0 1 1 561.9999980000001 177.99600000066667 Z" stroke="#7cb5ec" stroke-width="2" class="highcharts-point highcharts-negative highcharts-color-0"></path></g><g class="highcharts-series highcharts-series-2 highcharts-line-series highcharts-color-1 " transform="translate(76,45) scale(1 1)" clip-path="url(#highcharts-60tzyuv-11)"><path fill="none" d="M 5.5294117647059 156 L 33.176470588235 156 L 60.823529411765 156 L 88.470588235294 156 L 116.11764705882 156 L 143.76470588235 156 L 171.41176470588 156 L 199.05882352941 156 L 226.70588235294 156 L 254.35294117647 156 L 282 156 L 309.64705882353 156 L 337.29411764706 156 L 364.94117647059 156 L 392.58823529412 156 L 420.23529411765 156 L 447.88235294118 156 L 475.52941176471 156 L 503.17647058824 156 L 530.82352941176 156 L 558.47058823529 156" class="highcharts-graph" stroke="#434348" stroke-width="2" stroke-linejoin="round" stroke-linecap="round"></path></g><g class="highcharts-markers highcharts-series-2 highcharts-line-series highcharts-color-1 " transform="translate(76,45) scale(1 1)" clip-path="none"><path fill="white" d="M 1 152 L 9 152 9 160 1 160 Z" stroke="#434348" stroke-width="2" class="highcharts-point highcharts-color-1"></path><path fill="white" d="M 29 152 L 37 152 37 160 29 160 Z" stroke="#434348" stroke-width="2" class="highcharts-point highcharts-color-1"></path><path fill="white" d="M 56 152 L 64 152 64 160 56 160 Z" stroke="#434348" stroke-width="2" class="highcharts-point highcharts-color-1"></path><path fill="white" d="M 84 152 L 92 152 92 160 84 160 Z" stroke="#434348" stroke-width="2" class="highcharts-point highcharts-color-1"></path><path fill="white" d="M 112 152 L 120 152 120 160 112 160 Z" stroke="#434348" stroke-width="2" class="highcharts-point highcharts-color-1"></path><path fill="white" d="M 139 152 L 147 152 147 160 139 160 Z" stroke="#434348" stroke-width="2" class="highcharts-point highcharts-color-1"></path><path fill="white" d="M 167 152 L 175 152 175 160 167 160 Z" stroke="#434348" stroke-width="2" class="highcharts-point highcharts-color-1"></path><path fill="white" d="M 195 152 L 203 152 203 160 195 160 Z" stroke="#434348" stroke-width="2" class="highcharts-point highcharts-color-1"></path><path fill="white" d="M 222 152 L 230 152 230 160 222 160 Z" stroke="#434348" stroke-width="2" class="highcharts-point highcharts-color-1"></path><path fill="white" d="M 250 152 L 258 152 258 160 250 160 Z" stroke="#434348" stroke-width="2" class="highcharts-point highcharts-color-1"></path><path fill="white" d="M 278 152 L 286 152 286 160 278 160 Z" stroke="#434348" stroke-width="2" class="highcharts-point highcharts-color-1"></path><path fill="white" d="M 305 152 L 313 152 313 160 305 160 Z" stroke="#434348" stroke-width="2" class="highcharts-point highcharts-color-1"></path><path fill="white" d="M 333 152 L 341 152 341 160 333 160 Z" stroke="#434348" stroke-width="2" class="highcharts-point highcharts-color-1"></path><path fill="white" d="M 360 152 L 368 152 368 160 360 160 Z" stroke="#434348" stroke-width="2" class="highcharts-point highcharts-color-1"></path><path fill="white" d="M 388 152 L 396 152 396 160 388 160 Z" stroke="#434348" stroke-width="2" class="highcharts-point highcharts-color-1"></path><path fill="white" d="M 416 152 L 424 152 424 160 416 160 Z" stroke="#434348" stroke-width="2" class="highcharts-point highcharts-color-1"></path><path fill="white" d="M 443 152 L 451 152 451 160 443 160 Z" stroke="#434348" stroke-width="2" class="highcharts-point highcharts-color-1"></path><path fill="white" d="M 471 152 L 479 152 479 160 471 160 Z" stroke="#434348" stroke-width="2" class="highcharts-point highcharts-color-1"></path><path fill="white" d="M 499 152 L 507 152 507 160 499 160 Z" stroke="#434348" stroke-width="2" class="highcharts-point highcharts-color-1"></path><path fill="white" d="M 526 152 L 534 152 534 160 526 160 Z" stroke="#434348" stroke-width="2" class="highcharts-point highcharts-color-1"></path><path fill="white" d="M 554 152 L 562 152 562 160 554 160 Z" stroke="#434348" stroke-width="2" class="highcharts-point highcharts-color-1"></path></g><g class="highcharts-series highcharts-series-4 highcharts-line-series highcharts-color-2 " transform="translate(76,45) scale(1 1)" clip-path="url(#highcharts-60tzyuv-11)"><path fill="none" d="M 5.5294117647059 158.92656 L 33.176470588235 159.23648 L 60.823529411765 159.55367999999999 L 88.470588235294 159.97799999999998 L 116.11764705882 160.26711999999998 L 143.76470588235 160.72575999999998 L 171.41176470588 161.03152 L 199.05882352941 161.486 L 226.70588235294 161.85207999999997 L 254.35294117647 162.28367999999998 L 282 162.81616 L 309.64705882353 163.19888 L 337.29411764706 163.68352 L 364.94117647059 164.14944 L 392.58823529412 164.58623999999998 L 420.23529411765 165.11039999999997 L 447.88235294118 165.59296 L 475.52941176471 166.04847999999998 L 503.17647058824 166.53312 L 530.82352941176 167.01255999999998 L 558.47058823529 167.44935999999998" class="highcharts-graph" stroke="#90ed7d" stroke-width="2" stroke-linejoin="round" stroke-linecap="round"></path></g><g class="highcharts-markers highcharts-series-4 highcharts-line-series highcharts-color-2 " transform="translate(76,45) scale(1 1)" clip-path="none"><path fill="white" d="M 1 155 L 9 155 5 163 Z" stroke="#90ed7d" stroke-width="2" class="highcharts-point highcharts-negative highcharts-color-2"></path><path fill="white" d="M 29 155 L 37 155 33 163 Z" stroke="#90ed7d" stroke-width="2" class="highcharts-point highcharts-negative highcharts-color-2"></path><path fill="white" d="M 56 156 L 64 156 60 164 Z" stroke="#90ed7d" stroke-width="2" class="highcharts-point highcharts-negative highcharts-color-2"></path><path fill="white" d="M 84 156 L 92 156 88 164 Z" stroke="#90ed7d" stroke-width="2" class="highcharts-point highcharts-negative highcharts-color-2"></path><path fill="white" d="M 112 156 L 120 156 116 164 Z" stroke="#90ed7d" stroke-width="2" class="highcharts-point highcharts-negative highcharts-color-2"></path><path fill="white" d="M 139 157 L 147 157 143 165 Z" stroke="#90ed7d" stroke-width="2" class="highcharts-point highcharts-negative highcharts-color-2"></path><path fill="white" d="M 167 157 L 175 157 171 165 Z" stroke="#90ed7d" stroke-width="2" class="highcharts-point highcharts-negative highcharts-color-2"></path><path fill="white" d="M 195 157 L 203 157 199 165 Z" stroke="#90ed7d" stroke-width="2" class="highcharts-point highcharts-negative highcharts-color-2"></path><path fill="white" d="M 222 158 L 230 158 226 166 Z" stroke="#90ed7d" stroke-width="2" class="highcharts-point highcharts-negative highcharts-color-2"></path><path fill="white" d="M 250 158 L 258 158 254 166 Z" stroke="#90ed7d" stroke-width="2" class="highcharts-point highcharts-negative highcharts-color-2"></path><path fill="white" d="M 278 159 L 286 159 282 167 Z" stroke="#90ed7d" stroke-width="2" class="highcharts-point highcharts-negative highcharts-color-2"></path><path fill="white" d="M 305 159 L 313 159 309 167 Z" stroke="#90ed7d" stroke-width="2" class="highcharts-point highcharts-negative highcharts-color-2"></path><path fill="white" d="M 333 160 L 341 160 337 168 Z" stroke="#90ed7d" stroke-width="2" class="highcharts-point highcharts-negative highcharts-color-2"></path><path fill="white" d="M 360 160 L 368 160 364 168 Z" stroke="#90ed7d" stroke-width="2" class="highcharts-point highcharts-negative highcharts-color-2"></path><path fill="white" d="M 388 161 L 396 161 392 169 Z" stroke="#90ed7d" stroke-width="2" class="highcharts-point highcharts-negative highcharts-color-2"></path><path fill="white" d="M 416 161 L 424 161 420 169 Z" stroke="#90ed7d" stroke-width="2" class="highcharts-point highcharts-negative highcharts-color-2"></path><path fill="white" d="M 443 162 L 451 162 447 170 Z" stroke="#90ed7d" stroke-width="2" class="highcharts-point highcharts-negative highcharts-color-2"></path><path fill="white" d="M 471 162 L 479 162 475 170 Z" stroke="#90ed7d" stroke-width="2" class="highcharts-point highcharts-negative highcharts-color-2"></path><path fill="white" d="M 499 163 L 507 163 503 171 Z" stroke="#90ed7d" stroke-width="2" class="highcharts-point highcharts-negative highcharts-color-2"></path><path fill="white" d="M 526 163 L 534 163 530 171 Z" stroke="#90ed7d" stroke-width="2" class="highcharts-point highcharts-negative highcharts-color-2"></path><path fill="white" d="M 554 163 L 562 163 558 171 Z" stroke="#90ed7d" stroke-width="2" class="highcharts-point highcharts-negative highcharts-color-2"></path></g><g class="highcharts-series highcharts-series-6 highcharts-line-series highcharts-color-3 " visibility="hidden" transform="translate(76,45) scale(1 1)" clip-path="url(#highcharts-60tzyuv-11)"><path fill="none" d="M 5.5294117647059 170.95103999999998 L 33.176470588235 169.57512 L 60.823529411765 170.898 L 88.470588235294 172.4528 L 116.11764705882 178.00848 L 143.76470588235 184.10287999999997 L 171.41176470588 191.61064 L 199.05882352941 198.33008 L 226.70588235294 208.31511999999998 L 254.35294117647 217.09583999999998 L 282 233.60791999999998 L 309.64705882353 250.20319999999998 L 337.29411764706 278.60248 L 364.94117647059 307.21184 L 392.58823529412 347.87167999999997 L 420.23529411765 405.92136 L 447.88235294118 474.35544000000004 L 475.52941176471 565.08296 L 503.17647058824 680.80376 L 530.82352941176 829.8877600000001 L 558.47058823529 1020.11104" class="highcharts-graph" stroke="#f7a35c" stroke-width="2" stroke-linejoin="round" stroke-linecap="round"></path></g><g class="highcharts-markers highcharts-series-6 highcharts-line-series highcharts-color-3 " visibility="hidden" transform="translate(76,45) scale(1 1)" clip-path="none"></g></g><text x="325" text-anchor="middle" class="highcharts-title" style="color:#333333;font-size:18px;fill:#333333;" y="24"><tspan>Network Gradients</tspan></text><text x="325" text-anchor="middle" class="highcharts-subtitle" style="color:#666666;fill:#666666;" y="44"></text><g class="highcharts-legend" transform="translate(186,460)"><rect fill="none" class="highcharts-legend-box" rx="0" ry="0" x="0" y="0" width="278" height="25" visibility="visible"></rect><g><g><g class="highcharts-legend-item highcharts-line-series highcharts-color-0 highcharts-series-0" transform="translate(8,3)"><path fill="none" d="M 0 11 L 16 11" class="highcharts-graph" stroke="#7cb5ec" stroke-width="2"></path><path fill="white" d="M 12 11 A 4 4 0 1 1 11.999998000000167 10.996000000666664 Z" class="highcharts-point" stroke="#7cb5ec" stroke-width="2"></path><text x="21" style="color:#333333;font-size:12px;font-weight:bold;cursor:pointer;fill:#333333;" text-anchor="start" y="15"><tspan>tanh</tspan></text></g><g class="highcharts-legend-item highcharts-line-series highcharts-color-1 highcharts-series-2" transform="translate(76,3)"><path fill="none" d="M 0 11 L 16 11" class="highcharts-graph" stroke="#434348" stroke-width="2"></path><path fill="white" d="M 4 7 L 12 7 12 15 4 15 Z" class="highcharts-point" stroke="#434348" stroke-width="2"></path><text x="21" y="15" style="color:#333333;font-size:12px;font-weight:bold;cursor:pointer;fill:#333333;" text-anchor="start"><tspan>ReLU</tspan></text></g><g class="highcharts-legend-item highcharts-line-series highcharts-color-2 highcharts-series-4" transform="translate(149.65625,3)"><path fill="none" d="M 0 11 L 16 11" class="highcharts-graph" stroke="#90ed7d" stroke-width="2"></path><path fill="white" d="M 4 7 L 12 7 8 15 Z" class="highcharts-point" stroke="#90ed7d" stroke-width="2"></path><text x="21" y="15" style="color:#333333;font-size:12px;font-weight:bold;cursor:pointer;fill:#333333;" text-anchor="start"><tspan>ELU</tspan></text></g><g class="highcharts-legend-item highcharts-line-series highcharts-color-3 highcharts-series-6 highcharts-legend-item-hidden" transform="translate(215.984375,3)"><path fill="none" d="M 0 11 L 16 11" class="highcharts-graph" stroke="#cccccc" stroke-width="2"></path><path fill="#cccccc" d="M 8 7 L 12 11 8 15 4 11 Z" class="highcharts-point" stroke="#cccccc" stroke-width="2"></path><text x="21" y="15" style="color:#cccccc;font-size:12px;font-weight:bold;cursor:pointer;fill:#cccccc;" text-anchor="start"><tspan>SELU</tspan></text></g></g></g></g><g class="highcharts-axis-labels highcharts-xaxis-labels "><text x="81.529411764706" style="color:#666666;cursor:default;font-size:11px;fill:#666666;" text-anchor="middle" transform="translate(0,0)" y="428" opacity="1">1</text><text x="109.17647058824" style="color:#666666;cursor:default;font-size:11px;fill:#666666;" text-anchor="middle" transform="translate(0,0)" y="428" opacity="1">2</text><text x="136.82352941176" style="color:#666666;cursor:default;font-size:11px;fill:#666666;" text-anchor="middle" transform="translate(0,0)" y="428" opacity="1">3</text><text x="164.47058823529" style="color:#666666;cursor:default;font-size:11px;fill:#666666;" text-anchor="middle" transform="translate(0,0)" y="428" opacity="1">4</text><text x="192.11764705882" style="color:#666666;cursor:default;font-size:11px;fill:#666666;" text-anchor="middle" transform="translate(0,0)" y="428" opacity="1">5</text><text x="219.76470588235" style="color:#666666;cursor:default;font-size:11px;fill:#666666;" text-anchor="middle" transform="translate(0,0)" y="428" opacity="1">6</text><text x="247.41176470588" style="color:#666666;cursor:default;font-size:11px;fill:#666666;" text-anchor="middle" transform="translate(0,0)" y="428" opacity="1">7</text><text x="275.05882352941" style="color:#666666;cursor:default;font-size:11px;fill:#666666;" text-anchor="middle" transform="translate(0,0)" y="428" opacity="1">8</text><text x="302.70588235294" style="color:#666666;cursor:default;font-size:11px;fill:#666666;" text-anchor="middle" transform="translate(0,0)" y="428" opacity="1">9</text><text x="330.35294117647" style="color:#666666;cursor:default;font-size:11px;fill:#666666;" text-anchor="middle" transform="translate(0,0)" y="428" opacity="1">10</text><text x="358" style="color:#666666;cursor:default;font-size:11px;fill:#666666;" text-anchor="middle" transform="translate(0,0)" y="428" opacity="1">11</text><text x="385.64705882353" style="color:#666666;cursor:default;font-size:11px;fill:#666666;" text-anchor="middle" transform="translate(0,0)" y="428" opacity="1">12</text><text x="413.29411764706" style="color:#666666;cursor:default;font-size:11px;fill:#666666;" text-anchor="middle" transform="translate(0,0)" y="428" opacity="1">13</text><text x="440.94117647059" style="color:#666666;cursor:default;font-size:11px;fill:#666666;" text-anchor="middle" transform="translate(0,0)" y="428" opacity="1">14</text><text x="468.58823529412" style="color:#666666;cursor:default;font-size:11px;fill:#666666;" text-anchor="middle" transform="translate(0,0)" y="428" opacity="1">15</text><text x="496.23529411765" style="color:#666666;cursor:default;font-size:11px;fill:#666666;" text-anchor="middle" transform="translate(0,0)" y="428" opacity="1">16</text><text x="523.88235294118" style="color:#666666;cursor:default;font-size:11px;fill:#666666;" text-anchor="middle" transform="translate(0,0)" y="428" opacity="1">17</text><text x="551.52941176471" style="color:#666666;cursor:default;font-size:11px;fill:#666666;" text-anchor="middle" transform="translate(0,0)" y="428" opacity="1">18</text><text x="579.17647058824" style="color:#666666;cursor:default;font-size:11px;fill:#666666;" text-anchor="middle" transform="translate(0,0)" y="428" opacity="1">19</text><text x="606.82352941176" style="color:#666666;cursor:default;font-size:11px;fill:#666666;" text-anchor="middle" transform="translate(0,0)" y="428" opacity="1">20</text><text x="633.4453125" style="color:#666666;cursor:default;font-size:11px;fill:#666666;" text-anchor="middle" transform="translate(0,0)" y="428" opacity="1">21</text></g><g class="highcharts-axis-labels highcharts-yaxis-labels "><text x="61" style="color:#666666;cursor:default;font-size:11px;fill:#666666;" text-anchor="end" transform="translate(0,0)" y="414" opacity="1">-0.2</text><text x="61" style="color:#666666;cursor:default;font-size:11px;fill:#666666;" text-anchor="end" transform="translate(0,0)" y="362" opacity="1">-0.15</text><text x="61" style="color:#666666;cursor:default;font-size:11px;fill:#666666;" text-anchor="end" transform="translate(0,0)" y="310" opacity="1">-0.1</text><text x="61" style="color:#666666;cursor:default;font-size:11px;fill:#666666;" text-anchor="end" transform="translate(0,0)" y="258" opacity="1">-0.05</text><text x="61" style="color:#666666;cursor:default;font-size:11px;fill:#666666;" text-anchor="end" transform="translate(0,0)" y="206" opacity="1">0</text><text x="61" style="color:#666666;cursor:default;font-size:11px;fill:#666666;" text-anchor="end" transform="translate(0,0)" y="154" opacity="1">0.05</text><text x="61" style="color:#666666;cursor:default;font-size:11px;fill:#666666;" text-anchor="end" transform="translate(0,0)" y="102" opacity="1">0.1</text><text x="61" style="color:#666666;cursor:default;font-size:11px;fill:#666666;" text-anchor="end" transform="translate(0,0)" y="50" opacity="1">0.15</text></g><text x="640" class="highcharts-credits" text-anchor="end" style="cursor:pointer;color:#999999;font-size:9px;fill:#999999;" y="495">Highcharts.com</text></svg>